<svg width="22" height="22" viewBox="0 0 22 22" fill="none" xmlns="http://www.w3.org/2000/svg">
<path d="M11.0004 0.818115C8.23528 0.818115 7.88827 0.830206 6.80224 0.879631C5.71833 0.929267 4.97847 1.10087 4.3311 1.35266C3.66145 1.61272 3.09341 1.9606 2.52749 2.52675C1.96114 3.09269 1.61327 3.66075 1.35237 4.33021C1.09995 4.97781 0.928142 5.7179 0.879355 6.80142C0.830781 7.88748 0.818054 8.23472 0.818054 10.9999C0.818054 13.7651 0.830357 14.1111 0.879568 15.1972C0.929415 16.2811 1.10102 17.021 1.35258 17.6684C1.61285 18.3381 1.96072 18.9061 2.52685 19.4721C3.09256 20.0384 3.6606 20.3871 4.32983 20.6472C4.97763 20.899 5.71769 21.0706 6.80139 21.1202C7.88742 21.1697 8.23422 21.1817 10.9991 21.1817C13.7645 21.1817 14.1104 21.1697 15.1965 21.1202C16.2804 21.0706 17.0211 20.899 17.6689 20.6472C18.3383 20.3871 18.9055 20.0384 19.4712 19.4721C20.0376 18.9061 20.3854 18.3381 20.6463 17.6686C20.8966 17.021 21.0684 16.2809 21.1193 15.1974C21.1681 14.1113 21.1809 13.7651 21.1809 10.9999C21.1809 8.23472 21.1681 7.88769 21.1193 6.80163C21.0684 5.71769 20.8966 4.97781 20.6463 4.33042C20.3854 3.66075 20.0376 3.09269 19.4712 2.52675C18.9049 1.96039 18.3385 1.61251 17.6682 1.35266C17.0192 1.10087 16.2789 0.929267 15.195 0.879631C14.109 0.830206 13.7632 0.818115 10.9972 0.818115H11.0004ZM10.087 2.65296C10.3581 2.65254 10.6606 2.65296 11.0004 2.65296C13.7189 2.65296 14.0411 2.66272 15.1146 2.71151C16.1073 2.7569 16.6461 2.92278 17.005 3.06215C17.4801 3.24669 17.8188 3.4673 18.175 3.82366C18.5313 4.18002 18.7519 4.51942 18.9369 4.99457C19.0763 5.35305 19.2423 5.89184 19.2875 6.88457C19.3363 7.9579 19.3469 8.28033 19.3469 10.9976C19.3469 13.7149 19.3363 14.0373 19.2875 15.1106C19.2421 16.1034 19.0763 16.6421 18.9369 17.0006C18.7524 17.4758 18.5313 17.8141 18.175 18.1703C17.8186 18.5266 17.4803 18.7472 17.005 18.9318C16.6465 19.0718 16.1073 19.2372 15.1146 19.2826C14.0413 19.3314 13.7189 19.342 11.0004 19.342C8.28174 19.342 7.95954 19.3314 6.88623 19.2826C5.89354 19.2368 5.35477 19.0709 4.99566 18.9316C4.52052 18.747 4.18113 18.5264 3.82478 18.1701C3.46843 17.8137 3.24783 17.4751 3.06287 16.9998C2.92351 16.6413 2.75742 16.1025 2.71224 15.1098C2.66345 14.0364 2.6537 13.714 2.6537 10.9951C2.6537 8.27608 2.66345 7.95536 2.71224 6.88202C2.75763 5.8893 2.92351 5.35051 3.06287 4.9916C3.24741 4.51645 3.46843 4.17705 3.82478 3.82069C4.18113 3.46433 4.52052 3.24372 4.99566 3.05875C5.35455 2.91875 5.89354 2.7533 6.88623 2.70769C7.82548 2.66527 8.18947 2.65254 10.087 2.65042V2.65296ZM16.4352 4.34357C15.7607 4.34357 15.2134 4.89021 15.2134 5.56496C15.2134 6.23951 15.7607 6.78678 16.4352 6.78678C17.1097 6.78678 17.657 6.23951 17.657 5.56496C17.657 4.89042 17.1097 4.34315 16.4352 4.34315V4.34357ZM11.0004 5.77114C8.11289 5.77114 5.77178 8.11233 5.77178 10.9999C5.77178 13.8875 8.11289 16.2277 11.0004 16.2277C13.8879 16.2277 16.2282 13.8875 16.2282 10.9999C16.2282 8.11233 13.8877 5.77114 11.0002 5.77114H11.0004ZM11.0004 7.60599C12.8747 7.60599 14.3942 9.12542 14.3942 10.9999C14.3942 12.8742 12.8747 14.3939 11.0004 14.3939C9.12595 14.3939 7.60658 12.8742 7.60658 10.9999C7.60658 9.12542 9.12595 7.60599 11.0004 7.60599Z" fill="black"/>
</svg>
