<svg width="20" height="20" viewBox="0 0 20 20" fill="none" xmlns="http://www.w3.org/2000/svg">
<path fill-rule="evenodd" clip-rule="evenodd" d="M1.49111 0.083252C0.713616 0.083252 0.083334 0.713533 0.083334 1.49103V18.5088C0.083334 19.2862 0.713617 19.9165 1.49111 19.9165H18.5089C19.2864 19.9165 19.9167 19.2862 19.9167 18.5088V1.49103C19.9167 0.713535 19.2864 0.083252 18.5089 0.083252H1.49111ZM4.53501 6.2425C5.48523 6.2425 6.25554 5.47219 6.25554 4.52196C6.25554 3.57174 5.48523 2.80143 4.53501 2.80143C3.58478 2.80143 2.81447 3.57174 2.81447 4.52196C2.81447 5.47219 3.58478 6.2425 4.53501 6.2425ZM7.83126 7.51403H10.6828V8.82031C10.6828 8.82031 11.4565 7.27273 13.5619 7.27273C15.44 7.27273 16.9958 8.19792 16.9958 11.018V16.9646H14.0408V11.7385C14.0408 10.075 13.1527 9.89201 12.4759 9.89201C11.0714 9.89201 10.8309 11.1035 10.8309 11.9555V16.9646H7.83126V7.51403ZM6.03485 7.51404H3.03517V16.9646H6.03485V7.51404Z" fill="black"/>
</svg>
