<svg width="18" height="20" viewBox="0 0 18 20" fill="none" xmlns="http://www.w3.org/2000/svg">
<path d="M6.6548 16.1355C8.2123 16.1355 9.4749 15.0205 9.4749 13.3154V0.666748H12.857C12.6673 2.97351 14.9604 5.20179 17.4894 5.15083V8.33113C15.3266 8.33113 13.4875 7.41663 12.8474 6.9091V13.3154C12.8474 16.1355 10.6288 19.3334 6.6548 19.3334C2.68075 19.3334 0.510635 16.1355 0.510635 13.3154C0.510635 9.33509 4.72281 7.02667 7.51262 7.59088V10.8302C7.37228 10.7806 7.01035 10.7072 6.70208 10.7072C5.13164 10.6493 3.8347 11.923 3.8347 13.3154C3.8347 14.8729 5.0973 16.1355 6.6548 16.1355Z" fill="black"/>
</svg>
