<svg width="22" height="20" viewBox="0 0 22 20" fill="none" xmlns="http://www.w3.org/2000/svg">
<path fill-rule="evenodd" clip-rule="evenodd" d="M19.067 5.4369C19.0749 5.64093 19.0775 5.84488 19.0775 6.04892C19.0775 12.2348 14.726 19.3761 6.7687 19.3761C4.32434 19.3761 2.05144 18.597 0.136398 17.2708C0.474915 17.3079 0.818712 17.3358 1.16778 17.3358C3.19449 17.3358 5.06117 16.5844 6.54185 15.3231C4.64879 15.2953 3.05029 13.932 2.49899 12.0772C2.76365 12.1328 3.03621 12.1607 3.31493 12.1607C3.70797 12.1607 4.08956 12.1051 4.45534 11.9938C2.47435 11.5672 0.982257 9.67532 0.982257 7.40314C0.982257 7.37532 0.982257 7.36599 0.982257 7.34744C1.56609 7.69059 2.23432 7.90379 2.94389 7.93161C1.7815 7.08766 1.01741 5.65019 1.01741 4.0272C1.01741 3.17397 1.23019 2.36708 1.60476 1.67151C3.73785 4.50942 6.92697 6.37357 10.5223 6.56833C10.4484 6.22518 10.4106 5.86358 10.4106 5.50188C10.4106 2.91438 12.3476 0.818359 14.7375 0.818359C15.9816 0.818359 17.1053 1.38417 17.894 2.29304C18.8814 2.08901 19.8064 1.69952 20.6435 1.16161C20.3191 2.25597 19.6341 3.17393 18.739 3.74893C19.6147 3.63764 20.4501 3.38743 21.2247 3.01646C20.6435 3.95315 19.912 4.77843 19.067 5.4369Z" fill="black"/>
</svg>
